<svg id="Calque_1" xmlns="http://www.w3.org/2000/svg" width="168" height="54" viewBox="0 0 168 54"><style>.st0{fill:#00c0ec}</style><path class="st0" d="M.123 0h4.05v3.622H.123V0zm0 5.913h4.05v16.995H.123V5.913zm8.377 0h3.802c0 .743 0 1.455-.031 2.26.742-1.331 2.257-2.817 5.286-2.786 5.533.031 6.584 4.272 6.584 7.275v10.246h-4.049v-9.225c0-2.538-.835-4.489-3.679-4.489-2.875.031-3.864 1.95-3.864 4.334v9.38H8.5V5.913zm21.051 3.126h-2.813V5.913h2.813V0h4.05v5.913h2.906V9.04h-2.906v13.868h-4.05V9.039zm12.643 6.718c.185 2.724 2.597 4.241 4.915 4.21 1.978 0 3.308-.898 4.081-2.291h4.173c-.804 1.888-2.009 3.312-3.431 4.272-1.422.991-3.091 1.486-4.853 1.486-5.224 0-8.965-4.241-8.965-8.977 0-4.829 3.771-9.07 8.903-9.07 2.535 0 4.761.96 6.337 2.6 2.071 2.136 2.844 4.798 2.504 7.77H42.194zm9.676-3.096c-.154-1.61-1.855-3.87-4.822-3.839-2.999 0-4.637 2.167-4.792 3.839h9.614zm7.388-6.748h3.833v2.229c.742-1.517 2.133-2.724 4.699-2.755v4.086h-.185c-2.844 0-4.297 1.331-4.297 4.272v9.163h-4.05V5.913zm28.625 16.995h-4.05v-2.446c-1.082 1.981-3.338 2.972-5.719 2.972-5.441 0-8.625-4.241-8.625-9.039 0-5.355 3.864-9.008 8.625-9.008 3.091 0 4.977 1.641 5.719 3.003V5.913h4.05v16.995zM73.54 14.487c0 2.105 1.515 5.17 5.162 5.17 2.257 0 3.74-1.176 4.513-2.724.402-.743.587-1.548.649-2.384a5.3 5.3 0 0 0-.464-2.384c-.711-1.61-2.288-3.003-4.73-3.003-3.277 0-5.132 2.662-5.132 5.294v.031zm35.58 2.229c-.958 3.777-4.328 6.718-8.717 6.718-5.379 0-9.088-4.179-9.088-9.039 0-5.015 3.864-9.008 8.934-9.008 4.266 0 7.882 2.693 8.872 6.841h-4.142c-.711-1.795-2.349-3.065-4.575-3.065-1.484-.031-2.627.495-3.617 1.455-.865.929-1.391 2.291-1.391 3.777 0 3.065 2.133 5.232 5.008 5.232 2.535 0 3.957-1.517 4.575-2.91h4.141zm4.452-7.677h-2.813V5.913h2.813V0h4.049v5.913h2.906V9.04h-2.906v13.868h-4.049V9.039zM123.217 0h4.05v3.622h-4.05V0zm0 5.913h4.05v16.995h-4.05V5.913zm7.481 8.451c0-4.334 3.184-8.946 9.088-8.946 5.904 0 9.088 4.613 9.088 8.977 0 4.396-3.184 9.008-9.088 9.008-5.904 0-9.088-4.612-9.088-9.008v-.031zm4.049.062c0 2.972 2.257 5.17 5.039 5.17 2.782 0 5.008-2.198 5.008-5.201s-2.226-5.201-5.008-5.201-5.039 2.198-5.039 5.201v.031zm17.558-8.513h3.802c0 .743 0 1.455-.031 2.26.742-1.331 2.257-2.817 5.286-2.786 5.533.031 6.584 4.272 6.584 7.275v10.246h-4.049v-9.225c0-2.538-.835-4.489-3.679-4.489-2.875.031-3.864 1.95-3.864 4.334v9.38h-4.05V5.913zM0 29.885h.895v10.151c1.119-2.626 4.189-3.907 6.876-3.843 2.718 0 4.637.833 5.916 2.306 1.279 1.473 1.855 3.555 1.855 6.117v8.967h-.895v-8.967c0-2.274-.48-4.163-1.599-5.509-1.119-1.313-2.814-2.081-5.277-2.081-2.111.032-3.838.672-5.021 1.825S.895 41.669.895 43.815v9.768H0V29.885zm20.243 15.308c.064 5.54 4.701 8.006 8.027 7.974 3.134 0 5.884-1.601 7.228-4.483h.991c-.768 1.793-1.983 3.138-3.422 4.035-1.44.865-3.103 1.281-4.829 1.281-6.396 0-8.922-5.092-8.922-8.871 0-5.092 3.902-8.935 8.954-8.935 2.271 0 4.445.801 6.076 2.274 1.855 1.665 2.942 4.227 2.782 6.725H20.243zm15.99-.833c-.192-4.099-3.998-7.494-7.963-7.333-4.189 0-7.739 3.042-7.995 7.333h15.958zm21.297 9.224h-.895v-4.387C55.1 52.239 52.286 54 48.704 54c-5.565 0-8.922-4.324-8.922-8.903 0-4.676 3.454-8.903 8.922-8.903 4.093 0 7.036 2.53 7.931 4.9V36.61h.895v16.974zm-16.853-8.455c.032 3.811 2.654 8.038 8.123 8.038 3.614 0 6.364-2.21 7.451-5.284a7.76 7.76 0 0 0 .48-2.978c0-1.025-.192-2.05-.576-2.946-1.151-2.946-3.998-4.932-7.451-4.932-4.413 0-8.027 3.298-8.027 8.07v.032zM62.87 29.885h.895v23.699h-.895V29.885zm7.643 7.558h-3.742v-.833h3.742v-6.725h.895v6.725h4.349v.833h-4.349v16.141h-.895V37.443zm8.346-7.558h.895v10.151c1.119-2.626 4.189-3.907 6.876-3.843 2.718 0 4.637.833 5.916 2.306 1.279 1.473 1.855 3.555 1.855 6.117v8.967h-.895v-8.967c0-2.274-.48-4.163-1.599-5.509-1.119-1.313-2.814-2.081-5.277-2.081-2.111.032-3.838.672-5.021 1.825-1.183 1.153-1.855 2.818-1.855 4.964v9.768h-.895V29.885zm36.936 18.35c-1.183 3.459-4.445 5.765-8.25 5.765-6.044 0-9.082-4.58-9.082-8.871 0-5.028 3.774-8.935 8.922-8.935 3.454 0 7.1 1.922 8.443 5.925h-.991c-1.311-3.747-4.861-5.124-7.419-5.092-2.399.032-3.966.704-5.725 2.274-1.375 1.249-2.335 3.491-2.335 5.796 0 4.804 3.71 8.07 8.027 8.07 3.838-.032 6.588-2.402 7.419-4.932h.991zm20.563 5.349h-.895v-4.387c-1.535 3.042-4.349 4.804-7.931 4.804-5.565 0-8.922-4.324-8.922-8.903 0-4.676 3.454-8.903 8.922-8.903 4.093 0 7.036 2.53 7.931 4.9V36.61h.895v16.974zm-16.854-8.455c.032 3.811 2.654 8.038 8.123 8.038 3.614 0 6.364-2.21 7.451-5.284a7.76 7.76 0 0 0 .48-2.978c0-1.025-.192-2.05-.576-2.946-1.152-2.946-3.998-4.932-7.451-4.932-4.413 0-8.027 3.298-8.027 8.07v.032zm22.161-8.519h.895v3.235c1.599-3.363 4.509-3.555 5.98-3.651v.865h-.256c-3.614 0-5.725 2.626-5.725 7.238v9.287h-.895V36.61zm9.434 8.583c.064 5.54 4.701 8.006 8.027 7.974 3.134 0 5.884-1.601 7.227-4.483h.991c-.767 1.793-1.983 3.138-3.422 4.035-1.439.865-3.102 1.281-4.829 1.281-6.396 0-8.922-5.092-8.922-8.871 0-5.092 3.901-8.935 8.954-8.935 2.271 0 4.445.801 6.076 2.274 1.855 1.665 2.942 4.227 2.782 6.725h-16.884zm15.99-.833c-.192-4.099-3.998-7.494-7.963-7.333-4.189 0-7.739 3.042-7.995 7.333h15.958z"/></svg>